<?xml version="1.0" standalone="no"?><!DOCTYPE svg PUBLIC "-//W3C//DTD SVG 1.1//EN" "http://www.w3.org/Graphics/SVG/1.1/DTD/svg11.dtd"><svg t="1544839841397" class="icon" style="" viewBox="0 0 1024 1024" version="1.1" xmlns="http://www.w3.org/2000/svg" p-id="6518" xmlns:xlink="http://www.w3.org/1999/xlink" width="200" height="200"><defs><style type="text/css"></style></defs><path d="M896.0256 703.25248a9.4208 9.4208 0 0 0-0.53248-0.22016c-11.89376-4.52096-116.10624-47.46752-117.21728-164.5824-1.00352-95.14496 78.17728-145.536 94.10048-154.67008l0.70656-0.41984c1.75104-1.024 2.92352-2.65216 3.32288-4.53632a6.7072 6.7072 0 0 0-1.14176-5.376c-54.69696-74.34752-138.48064-85.55008-172.20608-86.89152a162.816 162.816 0 0 0-15.02208-0.6912c-39.63904 0-77.568 13.91104-108.07296 25.07776-21.06368 7.72608-39.23456 14.37696-51.76832 14.37696-14.11072 0-32.384-6.75328-53.54496-14.54592-28.31872-10.44992-60.43648-22.27712-94.40256-22.27712-0.80384 0-1.6128 0-2.38592 0.01536-79.01696 1.09056-153.66144 43.0848-194.816 109.58336-78.24384 126.19776-28.48768 317.70624 58.05056 433.81248 43.17184 58.05568 86.912 110.17728 146.8416 110.17728 1.11104 0 2.2528 0 3.39456-0.06656 28.15488-1.0752 48.47616-9.10336 68.16256-16.86528 22.07232-8.73472 44.88704-17.80736 80.69632-17.80736 34.06336 0 55.79776 8.76544 76.83072 17.19808 20.73088 8.33024 42.09664 16.96256 73.61024 16.39424 67.49184-1.14688 108.90752-57.37984 145.46432-106.98752 38.12864-51.78368 57.24672-102.0928 63.6928-121.2928l0.27136-0.768c1.23904-3.39968-0.50688-7.13216-4.03456-8.63744z m-375.61856-412.29824c3.2256 0.23552 6.51264 0.36864 9.8048 0.36864 46.80192 0 97.22368-24.05376 131.69664-62.7712 36.28032-40.8832 54.62528-93.35808 49.08032-140.35968-0.4352-3.69664-3.93216-6.41536-7.8592-6.28224-47.84128 1.81248-105.22112 29.17888-139.52 66.51904-29.1584 31.37536-57.61536 83.70176-50.1248 136.42752 0.47104 3.31264 3.3536 5.84704 6.92224 6.09792z" fill="#ffffff" p-id="6519"></path></svg>