<?xml version="1.0" standalone="no"?><!DOCTYPE svg PUBLIC "-//W3C//DTD SVG 1.1//EN" "http://www.w3.org/Graphics/SVG/1.1/DTD/svg11.dtd"><svg t="1544840699981" class="icon" style="" viewBox="0 0 1024 1024" version="1.1" xmlns="http://www.w3.org/2000/svg" p-id="3375" xmlns:xlink="http://www.w3.org/1999/xlink" width="200" height="200"><defs><style type="text/css"></style></defs><path d="M916.210526 215.578947h-94.315789c0-10.778947 0-24.252632-5.389474-37.726315-5.389474-24.252632-16.168421-45.810526-32.336842-67.368421C738.357895 48.505263 652.126316 13.473684 522.778947 13.473684c-123.957895 0-207.494737 35.031579-256 97.010527-13.473684 21.557895-26.947368 45.810526-32.336842 70.063157-2.694737 13.473684-5.389474 26.947368-5.389473 35.031579H107.789474L53.894737 1024h916.210526L916.210526 215.578947zM334.147368 158.989474c32.336842-40.421053 91.621053-64.673684 191.326316-64.673685 105.094737 0 167.073684 24.252632 196.71579 64.673685 16.168421 21.557895 18.863158 40.421053 18.863158 56.589473h-431.157895c2.694737-13.473684 5.389474-32.336842 24.252631-56.589473zM140.126316 943.157895l43.115789-646.736842h657.51579l43.115789 646.736842H140.126316z" p-id="3376" fill="#ffffff"></path></svg>