<?xml version="1.0" standalone="no"?><!DOCTYPE svg PUBLIC "-//W3C//DTD SVG 1.1//EN" "http://www.w3.org/Graphics/SVG/1.1/DTD/svg11.dtd"><svg t="1544840508145" class="icon" style="" viewBox="0 0 1024 1024" version="1.1" xmlns="http://www.w3.org/2000/svg" p-id="2065" xmlns:xlink="http://www.w3.org/1999/xlink" width="200" height="200"><defs><style type="text/css"></style></defs><path d="M988.730217 919.363871L764.1186 707.671495c56.08025-70.034053 89.621157-158.895917 89.621156-255.592213 0-226.000244-183.211718-409.216056-409.216055-409.216055-226.004337 0-409.217079 183.215812-409.217079 409.216055s183.211718 409.217079 409.217079 409.217079c100.079346 0 191.766558-35.928281 262.870989-95.589079l225.684043 212.703404c11.856026 11.174504 32.095999 8.945743 45.207621-4.968152l8.16496-8.66331c13.112646-13.910824 14.131859-34.244942 2.278903-45.415353z m-876.574323-467.283565c0-183.560666 148.806117-332.367807 332.367807-332.367807s332.367807 148.807141 332.367807 332.367807c0 183.561689-148.806117 332.36883-332.367807 332.368829S112.155894 635.641995 112.155894 452.080306z" p-id="2066" fill="#ffffff"></path></svg>